<svg xmlns="http://www.w3.org/2000/svg" width="1440" height="634" viewBox="0 0 1440 634"><rect width="100%" height="100%" fill="#DDDDDD"/><path fill="#999999" d="M348.96 362.465h21.97v15.63h-67.6v-15.63h24.76v-71.24q0-4.22.25-8.7l-17.57 14.7q-1.52 1.19-3 1.48-1.48.3-2.79.04-1.31-.25-2.33-.88-1.01-.64-1.52-1.4l-6.59-9.04 37.27-31.69h17.15v106.73Zm55.52-30.42h37.18v-39.97q0-5.66.76-12.51l-37.94 52.48Zm55.34 0h15.38v12.08q0 1.69-1.09 2.92-1.1 1.22-3.13 1.22h-11.16v29.83h-18.16v-29.83h-51.55q-2.11 0-3.72-1.31-1.6-1.31-2.02-3.25l-2.2-10.56 57.88-77.32h19.77v76.22Zm42.68 0h37.18v-39.97q0-5.66.76-12.51l-37.94 52.48Zm55.34 0h15.38v12.08q0 1.69-1.09 2.92-1.1 1.22-3.13 1.22h-11.16v29.83h-18.16v-29.83h-51.55q-2.11 0-3.72-1.31-1.6-1.31-2.02-3.25l-2.2-10.56 57.88-77.32h19.77v76.22Zm113.49-15.04q0 15.97-3.42 27.75-3.43 11.79-9.47 19.48-6.04 7.69-14.28 11.45-8.24 3.76-17.79 3.76-9.54 0-17.7-3.76-8.15-3.76-14.15-11.45-6-7.69-9.38-19.48-3.38-11.78-3.38-27.75 0-16.06 3.38-27.8 3.38-11.75 9.38-19.44 6-7.69 14.15-11.45 8.16-3.76 17.7-3.76 9.55 0 17.79 3.76 8.24 3.76 14.28 11.45 6.04 7.69 9.47 19.44 3.42 11.74 3.42 27.8Zm-21.55 0q0-13.27-1.94-21.97-1.95-8.71-5.2-13.86-3.25-5.16-7.48-7.23-4.22-2.07-8.79-2.07-4.47 0-8.66 2.07-4.18 2.07-7.39 7.23-3.21 5.15-5.11 13.86-1.9 8.7-1.9 21.97 0 13.26 1.9 21.97 1.9 8.7 5.11 13.85 3.21 5.16 7.39 7.23 4.19 2.07 8.66 2.07 4.57 0 8.79-2.07 4.23-2.07 7.48-7.23 3.25-5.15 5.2-13.85 1.94-8.71 1.94-21.97Zm155.73 33.12-11.07 10.9-28.64-28.64-28.9 28.81-11.07-10.9 28.9-28.98-27.55-27.55 10.99-10.99 27.54 27.55 27.38-27.38 11.16 10.99-27.47 27.46 28.73 28.73Zm130.56-94.22-36.25 44.37-4.23 5.23q3.55-1.77 7.65-2.74 4.1-.97 8.83-.97 6.93 0 13.48 2.28 6.55 2.28 11.53 6.88 4.99 4.61 8.03 11.45 3.04 6.85 3.04 15.97 0 8.54-3.13 16.02-3.12 7.48-8.78 13.05-5.67 5.58-13.65 8.79-7.99 3.21-17.62 3.21-9.8 0-17.58-3.12-7.77-3.13-13.26-8.75t-8.41-13.52q-2.91-7.9-2.91-17.53 0-8.62 3.5-17.71 3.51-9.08 10.86-18.88l29.15-39.13q1.52-2.02 4.44-3.46 2.91-1.44 6.72-1.44h18.59Zm-31.52 106.47q4.98 0 9.17-1.69 4.18-1.69 7.18-4.73 3-3.04 4.69-7.14 1.69-4.1 1.69-8.91 0-5.24-1.61-9.43-1.6-4.18-4.56-7.09-2.96-2.92-7.1-4.44-4.14-1.52-9.12-1.52-4.99 0-9.05 1.69-4.05 1.69-6.92 4.69-2.88 3-4.48 7.1-1.61 4.09-1.61 8.83 0 5.07 1.4 9.25 1.39 4.18 4.14 7.14 2.74 2.96 6.8 4.61 4.05 1.64 9.38 1.64Zm69.29-70.47-10.99-1.94q1.27-8.79 4.9-15.42 3.64-6.64 9.09-11.07 5.45-4.44 12.5-6.68 7.06-2.24 15.17-2.24 8.45 0 15.25 2.41 6.81 2.41 11.62 6.67 4.82 4.27 7.4 10.02 2.57 5.74 2.57 12.42 0 5.83-1.31 10.27-1.31 4.43-3.76 7.73-2.45 3.29-6.08 5.57-3.63 2.29-8.2 3.81 10.99 3.46 16.4 10.56 5.4 7.1 5.4 17.83 0 9.13-3.38 16.14t-9.12 11.79q-5.75 4.77-13.31 7.22-7.56 2.45-16.01 2.45-9.21 0-16.06-2.11-6.84-2.11-11.91-6.25-5.07-4.14-8.62-10.14-3.55-6-6.09-13.86l9.21-3.8q3.64-1.53 6.81-.81 3.17.72 4.6 3.43 1.52 2.95 3.34 5.83 1.82 2.87 4.35 5.11 2.54 2.24 5.96 3.63 3.42 1.4 8.15 1.4 5.33 0 9.3-1.74 3.97-1.73 6.63-4.52 2.66-2.79 3.97-6.21t1.31-6.88q0-4.4-.93-7.99t-3.88-6.13q-2.96-2.53-8.5-3.97-5.53-1.43-14.83-1.43v-14.88q7.69-.08 12.76-1.43 5.07-1.35 8.07-3.76 3-2.41 4.19-5.79 1.18-3.38 1.18-7.44 0-8.62-4.82-13.09-4.81-4.48-12.84-4.48-3.72 0-6.85 1.05-3.12 1.06-5.62 2.96-2.49 1.9-4.18 4.44-1.69 2.53-2.53 5.57-1.44 3.89-3.76 5.16-2.33 1.27-6.55.59Zm100.89 40.14h37.18v-39.97q0-5.66.76-12.51l-37.94 52.48Zm55.35 0h15.38v12.08q0 1.69-1.1 2.92-1.1 1.22-3.13 1.22h-11.15v29.83h-18.17v-29.83h-51.54q-2.12 0-3.72-1.31-1.61-1.31-2.03-3.25l-2.2-10.56 57.89-77.32h19.77v76.22Z"/></svg>