<svg version="1.0" xmlns="http://www.w3.org/2000/svg"
     width="510.000000pt" height="156.000000pt" viewBox="0 0 510.000000 156.000000"
     preserveAspectRatio="xMidYMid meet">

    <g transform="translate(0.000000,156.000000) scale(0.100000,-0.100000)"
       fill="#000000" stroke="none">
        <path d="M3296 1518 c-8 -13 -17 -34 -21 -48 -4 -14 -37 -88 -72 -165 -71
-153 -147 -340 -183 -450 -19 -56 -38 -87 -95 -155 -86 -101 -170 -182 -211
-203 -51 -26 -101 -31 -129 -13 -24 16 -49 81 -41 107 2 8 7 26 10 42 8 34 18
34 64 -3 21 -16 52 -32 70 -36 28 -6 36 -2 68 32 20 22 60 89 89 149 92 194
108 274 64 321 -23 25 -131 64 -177 64 -30 0 -115 -63 -178 -133 -91 -102
-158 -297 -137 -401 l10 -50 -89 -154 c-113 -195 -135 -231 -161 -260 -50 -55
-49 -13 8 203 84 322 256 797 300 831 8 6 69 14 136 18 66 4 127 10 135 13 22
8 17 51 -7 64 -14 7 -59 10 -123 8 l-101 -4 -5 45 c-6 56 -17 73 -55 92 -47
24 -82 29 -92 15 -6 -6 -22 -44 -37 -84 -15 -39 -34 -77 -43 -85 -9 -7 -80
-22 -159 -33 -123 -17 -148 -18 -186 -7 -57 17 -99 3 -157 -52 -90 -85 -103
-166 -46 -286 20 -40 35 -83 33 -94 -2 -12 -50 -56 -122 -113 -124 -95 -155
-126 -156 -155 0 -22 -19 -33 -33 -19 -15 15 1 73 68 241 29 74 64 165 76 202
23 64 23 68 7 102 -19 38 -67 69 -101 64 -13 -2 -30 -18 -42 -40 -11 -21 -24
-38 -28 -38 -5 0 -23 11 -41 25 -64 49 -186 72 -238 44 -77 -42 -259 -291
-294 -405 -21 -68 -13 -152 20 -208 35 -61 79 -86 149 -86 70 0 94 19 173 135
32 47 63 85 70 85 6 0 15 -21 19 -47 21 -145 156 -231 243 -158 20 17 33 22
37 14 18 -27 101 -52 180 -53 98 -1 122 12 165 87 51 89 50 147 -1 264 -22 52
-22 53 -3 74 10 11 48 39 84 61 36 22 90 57 120 78 30 21 56 37 58 36 1 -2
-22 -72 -52 -157 -105 -295 -163 -512 -173 -639 -7 -91 7 -125 70 -171 81 -59
162 -22 240 110 40 67 142 285 171 365 6 18 11 15 49 -21 109 -106 244 -121
338 -36 22 20 61 65 86 100 26 35 48 60 50 56 1 -4 4 -25 8 -46 7 -45 57 -105
102 -124 29 -11 37 -11 62 2 17 8 33 19 36 25 9 15 41 12 54 -4 17 -21 128
-56 174 -56 48 0 67 10 143 76 104 91 168 250 169 419 0 74 -4 97 -23 132 -27
51 -81 82 -156 90 -49 5 -54 3 -111 -40 -63 -48 -88 -79 -191 -242 -35 -55
-64 -94 -64 -87 0 21 96 272 140 367 55 117 130 305 130 326 0 36 -73 99 -114
99 -9 0 -22 -10 -30 -22z m-1047 -317 c16 -10 11 -35 -18 -104 -17 -39 -29
-50 -107 -92 -48 -27 -124 -70 -168 -97 -71 -43 -82 -47 -95 -33 -9 9 -15 34
-15 65 0 39 6 59 30 92 36 52 107 107 147 115 17 3 32 14 34 24 5 18 21 23 98
32 57 7 80 7 94 -2z m-875 -177 c9 -8 16 -20 16 -26 0 -13 -269 -415 -318
-476 -25 -30 -42 -42 -56 -40 -19 3 -21 10 -21 68 0 52 7 78 32 132 59 126
167 264 257 329 44 33 68 36 90 13z m2195 -12 c24 -45 -27 -249 -87 -350 -51
-86 -142 -172 -181 -172 -31 0 -81 40 -81 65 0 52 173 339 251 418 61 60 82
69 98 39z m-787 -7 c1 -28 -101 -252 -129 -283 -32 -36 -33 -36 -48 -18 -8 11
-15 33 -15 49 0 74 189 322 192 252z m-946 -320 c8 -44 -17 -115 -57 -159 -26
-29 -31 -31 -103 -31 -83 0 -105 11 -90 44 10 23 211 181 230 181 7 0 16 -16
20 -35z"/>
        <path d="M3979 1444 c-27 -65 -42 -130 -36 -156 4 -13 18 -30 33 -39 l27 -17
-54 -7 c-68 -8 -89 -14 -89 -25 0 -19 45 -20 184 -6 145 16 176 14 176 -8 0
-6 -14 -47 -31 -91 -17 -44 -57 -153 -89 -241 l-58 -161 -87 -92 c-48 -50 -94
-91 -101 -91 -35 0 5 141 117 417 57 141 60 173 23 202 -34 27 -102 48 -113
35 -29 -31 -150 -354 -190 -509 -25 -94 3 -166 84 -223 43 -29 56 -33 94 -29
23 3 56 14 72 26 16 12 29 20 29 19 0 -2 -11 -53 -25 -113 -42 -185 -32 -248
47 -305 49 -36 77 -37 136 -8 35 17 55 37 93 97 41 64 140 271 179 375 l11 29
42 -40 c111 -108 245 -121 341 -33 68 63 204 259 227 330 36 104 13 95 -104
-42 -168 -197 -231 -250 -313 -264 -52 -8 -89 20 -97 74 -7 42 8 112 24 112 6
0 27 -13 47 -30 21 -16 51 -32 68 -36 27 -5 36 -1 69 33 20 21 59 83 86 138
92 189 110 280 67 329 -24 26 -128 66 -174 66 -33 0 -107 -54 -173 -126 -98
-107 -166 -300 -144 -408 l10 -50 -90 -155 c-145 -252 -177 -296 -197 -275
-13 13 76 351 150 574 72 219 175 467 199 479 9 5 71 12 138 16 95 6 126 11
137 24 14 15 14 20 -1 40 -15 22 -20 23 -127 20 l-111 -4 -5 51 c-7 64 -20 80
-83 99 -62 18 -64 17 -101 -81 -15 -40 -35 -78 -44 -87 -9 -8 -48 -17 -87 -21
-38 -4 -80 -9 -92 -12 -16 -5 -12 4 22 40 52 53 74 111 55 145 -14 27 -83 60
-123 61 -24 0 -31 -7 -48 -46z m763 -439 c1 -28 -101 -252 -129 -283 -32 -36
-33 -36 -48 -18 -8 11 -15 33 -15 49 0 74 189 323 192 252z"/>
        <path d="M1210 1394 c-326 -39 -751 -153 -989 -265 -173 -82 -228 -142 -219
-241 4 -39 12 -57 37 -81 26 -27 33 -30 41 -17 5 8 10 26 10 39 0 38 83 110
181 158 94 46 335 130 345 120 3 -3 -10 -44 -30 -90 -47 -111 -139 -362 -172
-473 -19 -64 -26 -114 -27 -176 -1 -84 0 -89 28 -119 38 -39 76 -59 114 -59
39 0 44 10 29 64 -9 36 -9 62 2 128 16 102 102 359 170 511 28 61 63 140 77
174 45 107 47 108 218 137 83 14 196 31 253 36 124 13 150 22 158 54 8 33 -13
94 -36 106 -23 12 -44 12 -190 -6z"/>
    </g>
</svg>
